# xmcd
#
# Track frame offsets: 
#        150
#        17780
#        41755
#        61132
#        82565
#        101215
#        115750
#        137190
#        156962
#        177237
#        192875
#
# Disc length: 2814 seconds
#
# Revision: 3
# Processed by: cddbd v1.5.1PL2 Copyright (c) Steve Scherf et al.
# Submitted via: ExactAudioCopy v0.95b4
#
DISCID=8a0afc0b
DTITLE=Santana - 21 Grandes Sucessos (Disco 1)
DYEAR=1900
DGENRE=
TTITLE0=Evil Ways
TTITLE1=Black Magic - Gypsy Queen
TTITLE2=Oye Como Va
TTITLE3=Samba Pa Ti
TTITLE4=She's Not There
TTITLE5=Shades of Time
TTITLE6=Open Invitation
TTITLE7=Hold On
TTITLE8=Bella
TTITLE9=Winning
TTITLE10=All I Ever Wanted
EXTD=
EXTT0=\n\n\n\n
EXTT1=
EXTT2=
EXTT3=
EXTT4=
EXTT5=
EXTT6=
EXTT7=
EXTT8=
EXTT9=
EXTT10=
PLAYORDER=
